<?xml version="1.0" encoding="utf-8"?>
<!-- Generator: Adobe Illustrator 22.1.0, SVG Export Plug-In . SVG Version: 6.00 Build 0)  -->
<svg version="1.1" id="Layer_1" xmlns="http://www.w3.org/2000/svg" xmlns:xlink="http://www.w3.org/1999/xlink" x="0px" y="0px"
	 viewBox="0 0 100 125" style="enable-background:new 0 0 100 125;" xml:space="preserve">
<style type="text/css">
	.st0{fill:#FFFFFF;}
</style>
<rect x="38.7" y="87" class="st0" width="23.1" height="8.5"/>
<path class="st0" d="M67.7,46h-2.2l0.2-9h2.1v-2.9c0.9,0,1.6-0.7,1.6-1.6c0-0.9-0.7-1.6-1.6-1.6h-2.1L66,18.5c0,0,0.2-0.8-1.3-0.9
	s-4.9-0.5-4.9-0.8s4.6,0.7,4.6-1.4c0-0.3-2.6-1.3-4.8-3.2c-1.9-1.6-3.5-4.1-4.2-4.1c0,0-0.5-0.1-0.9,0.7S54.1,9,54,8.7
	s-1.4-3.2-3.9-3.2s-3.8,2.9-3.9,3.2c-0.1,0.3-0.1,0.9-0.5,0.1s-0.9-0.7-0.9-0.7c-0.7,0-2.3,2.5-4.2,4.1c-2.3,1.9-4.8,2.9-4.8,3.2
	c0,2.1,4.6,1.1,4.6,1.4s-3.5,0.7-4.9,0.8c-1.5,0.1-1.3,0.9-1.3,0.9l0.3,12.4h-2.1c-0.9,0-1.6,0.7-1.6,1.6c0,0.9,0.7,1.6,1.6,1.6V37
	h2.1l0.2,9h-2.2c-0.9,0-1.6,0.7-1.6,1.6c0,0.9,0.7,1.6,1.6,1.6v2.9h2.3l0.2,9h-2c-0.9,0-1.6,0.7-1.6,1.6c0,0.9,0.7,1.6,1.6,1.6v2.9
	h2.1l0.2,8c2.1,2.1,3,8.6,3,8.6h23.1c0,0,0.9-6.4,3-8.6l0.2-8h2.1v-2.9c0.9,0,1.6-0.7,1.6-1.6c0-0.9-0.7-1.6-1.6-1.6h-2l0.2-9h2.3
	v-2.9c0.9,0,1.6-0.7,1.6-1.6C69.3,46.7,68.6,46,67.7,46z M46.2,52.6l0.4,11.5l-6.9,0.2l-0.4-11.5L46.2,52.6z M39.2,49.2l-0.4-11.5
	l6.9-0.2L46.1,49L39.2,49.2z M38.6,30.9c0-1.8,1.5-3.3,3.3-3.4s3.4,1.3,3.5,3.1l0,0l0.1,3.2L38.6,34L38.6,30.9L38.6,30.9L38.6,30.9z
	 M43.5,72.9c-1.9,0.1-3.5-1.4-3.6-3.3l-0.1-1.7l6.9-0.2l0.1,1.7C46.9,71.3,45.4,72.9,43.5,72.9z M54.9,30.7L54.9,30.7
	c0.2-1.8,1.7-3.2,3.6-3.1c1.8,0.1,3.3,1.5,3.3,3.4l0,0l-0.1,3.2L54.8,34L54.9,30.7z M54.3,49l0.4-11.5l6.9,0.2l-0.4,11.5L54.3,49z
	 M61.1,52.8l-0.4,11.5l-6.9-0.2l0.4-11.5L61.1,52.8z M56.9,72.9c-1.9-0.1-3.4-1.7-3.3-3.6l0.1-1.7l6.9,0.2l-0.1,1.7
	C60.4,71.5,58.8,73,56.9,72.9z"/>
</svg>
