<?xml version="1.0" encoding="utf-8"?>
<!-- Generator: Adobe Illustrator 22.1.0, SVG Export Plug-In . SVG Version: 6.00 Build 0)  -->
<svg version="1.1" id="Layer_1" xmlns="http://www.w3.org/2000/svg" xmlns:xlink="http://www.w3.org/1999/xlink" x="0px" y="0px"
	 viewBox="0 0 100 125" style="enable-background:new 0 0 100 125;" xml:space="preserve">
<style type="text/css">
	.st0{fill:#F7901E;}
</style>
<rect x="42.5" y="86.6" class="st0" width="15.7" height="8.9"/>
<path class="st0" d="M66.5,46.9c-0.3,0-0.5,0.2-0.5,0.5l0.1,2.9l-1.6,0.1c-0.1-3.2,0-6,0-10.4c0-0.2,0-0.4,0-0.6l2.1-0.1l0.1,2.9
	c0,0.3,0.3,0.5,0.6,0.4c0,0,5.2-0.2,5-5.2c-0.2-4.9-5.4-4.7-5.4-4.7c-0.3,0-0.5,0.2-0.5,0.5l0.1,2.9l-1.9,0.1
	c0.2-4,0.8-8.1,1.4-11.6h1.7v2.9c0,0.3,0.2,0.5,0.5,0.5c0,0,5.2,0,5.2-4.9s-5.2-5-5.2-5c-0.3,0-0.5,0.2-0.5,0.5v2.9h-1.1
	c0.5-2.7,0.9-4.5,0.9-4.8c0.1-0.7,0.2-0.6-0.4-1.5c-0.7-1-1.5-2.2-1.5-2.2c-1-1.8-1-3.2-1.9-3.7c-0.9-0.6-2.8,0-7.3-2.8
	c-1.4-0.9-1.8-1.1-3.2-1.1c-1.5,0-2.8,1.1-2.8,1.1s-1.4-1-2.9-1c-1.4,0-1.8,0.3-3.2,1.1c-4.5,2.8-6.4,2.3-7.3,2.8
	c-0.9,0.6-0.9,1.9-1.9,3.7c0,0-0.8,1.2-1.5,2.2s-0.5,0.9-0.4,1.5c0,0.3,0.5,2.6,1.1,5.9l-1.2,0.1L33,20c0-0.3-0.3-0.5-0.6-0.4
	c0,0-5.2,0.2-5,5.1s5.4,4.7,5.4,4.7c0.3,0,0.5-0.2,0.5-0.5L33.2,26l1.6-0.1c0.5,3.3,1,7.2,1.3,10.8H34v-2.9c0-0.3-0.2-0.5-0.5-0.5
	c0,0-5.2,0-5.2,4.9s5.2,5,5.2,5c0.3,0,0.5-0.2,0.5-0.5v-2.9h2.2c0,0.1,0,0.2,0,0.3c0,4.5,0.1,7.3-0.1,10.6h-1.9v-2.9
	c0-0.3-0.2-0.5-0.5-0.5c0,0-5.2,0-5.2,4.9s5.2,5,5.2,5c0.3,0,0.5-0.2,0.5-0.5v-2.9h1.7c-0.2,3.1-0.6,6.9-1.4,12.7
	c0,0-0.7,2.2,1.1,3.3c1.8,1.1,6.7,5.7,6.7,14.1h7.9h7.9c0-8.3,4.8-13,6.7-14.1c1.8-1.1,1.1-3.3,1.1-3.3c-0.8-5.9-1.2-9.8-1.4-12.9
	l1.6-0.1l0.1,2.9c0,0.3,0.3,0.5,0.6,0.4c0,0,5.2-0.2,5-5.1C71.7,46.7,66.5,46.9,66.5,46.9z M39.9,24c1.1-0.6,2.5-0.2,3,1
	c0.6,1.1,0.2,2.5-0.9,3.1c-1.1,0.6-2.5,0.2-3-1S38.8,24.6,39.9,24z M42.7,59.5c-1.1,0.6-2.5,0.2-3-1c-0.6-1.1-0.2-2.5,0.9-3.1
	c1.1-0.6,2.5-0.2,3,1C44.3,57.5,43.8,58.9,42.7,59.5z M42.7,43.8c-1.1,0.6-2.5,0.2-3-1c-0.6-1.1-0.2-2.5,0.9-3.1
	c1.1-0.6,2.5-0.2,3,1C44.3,41.9,43.8,43.2,42.7,43.8z M58.8,39.8c1.1-0.6,2.5-0.2,3,1c0.6,1.1,0.2,2.5-0.9,3.1c-1.1,0.6-2.5,0.2-3-1
	C57.3,41.7,57.7,40.4,58.8,39.8z M61.2,59.1c-1.1,0.6-2.5,0.2-3-1C57.6,57,58,55.6,59.1,55s2.5-0.2,3,1
	C62.7,57.2,62.3,58.5,61.2,59.1z M61.3,28c-1.1,0.6-2.5,0.2-3-1c-0.6-1.1-0.2-2.5,0.9-3.1c1.1-0.6,2.5-0.2,3,1
	C62.8,26.1,62.4,27.4,61.3,28z"/>
</svg>
