<?xml version="1.0" encoding="utf-8"?>
<!-- Generator: Adobe Illustrator 22.1.0, SVG Export Plug-In . SVG Version: 6.00 Build 0)  -->
<svg version="1.1" id="Layer_1" xmlns="http://www.w3.org/2000/svg" xmlns:xlink="http://www.w3.org/1999/xlink" x="0px" y="0px"
	 viewBox="0 0 100 125" style="enable-background:new 0 0 100 125;" xml:space="preserve">
<style type="text/css">
	.st0{fill:#FFFFFF;}
</style>
<path class="st0" d="M62.4,32.4c0.5-6.6,10.8-3.1,10.8-14.6c0,0,0.1-12.2-11.6-12.2c-7.1,0-10.5,5.2-12.3,9.4l-0.6-0.2l-0.3,0.9
	l-0.3-0.1c0.1-0.8,0.4-3.1,0.4-3.3c0-0.3-0.2-0.4-0.2-0.4s-1.9-0.6-2.4-0.8s-0.7,0-0.9,0.2s-1.7,1.7-2.1,3c-0.4,1.3-0.1,3.4,0,3.7
	s0.1,0.5,0.6,0.7s2.4,0.8,2.4,0.8s0.3,0.1,0.4-0.2c0.1-0.2,1.3-2.2,1.7-2.9l0.3,0.1L48,17.4l0.5,0.2c-0.2,0.7-0.4,1.3-0.6,1.8
	l-1.7,5.3l-0.5-0.2l-0.3,0.9L45,25.2c0.1-0.8,0.4-3.1,0.4-3.3c0-0.3-0.2-0.4-0.2-0.4s-1.9-0.6-2.4-0.8s-0.7,0-0.9,0.2
	s-1.7,1.7-2.1,3s-0.1,3.4,0,3.7c0.1,0.3,0.1,0.5,0.6,0.7s2.4,0.8,2.4,0.8s0.3,0.1,0.4-0.2c0.1-0.2,1.3-2.2,1.7-2.9l0.3,0.1L44.8,27
	l0.6,0.2l-2.3,7.1L42.5,34l-0.3,0.9l-0.3-0.1c0.1-0.8,0.4-3.1,0.4-3.3c0-0.3-0.2-0.4-0.2-0.4s-1.9-0.6-2.4-0.8
	c-0.5-0.2-0.7,0-0.9,0.2s-1.7,1.7-2.1,3c-0.4,1.3-0.1,3.4,0,3.7s0.1,0.5,0.6,0.7s2.4,0.8,2.4,0.8s0.3,0.1,0.4-0.2
	c0.1-0.2,1.3-2.2,1.7-2.9l0.3,0.1l-0.3,0.9l0.6,0.2L40,43.9l-0.6-0.2L39,44.6l-0.3-0.1c0.1-0.8,0.4-3.1,0.4-3.3
	c0-0.3-0.2-0.4-0.2-0.4S37,40.2,36.4,40c-0.5-0.2-0.7,0-0.9,0.2s-1.7,1.7-2.1,3c-0.4,1.3-0.1,3.4,0,3.7s0.1,0.5,0.6,0.7
	s2.4,0.8,2.4,0.8s0.3,0.1,0.4-0.2c0.1-0.2,1.3-2.2,1.7-2.9l0.3,0.1l-0.3,0.9l0.6,0.2l-2.3,7.1l-0.7-0.2l-0.3,0.9l-0.3-0.1
	c0.1-0.8,0.4-3.1,0.4-3.3c0-0.3-0.2-0.4-0.2-0.4s-1.9-0.6-2.4-0.8s-0.7,0-0.9,0.2s-1.7,1.7-2.1,3s-0.1,3.4,0,3.7s0.1,0.5,0.6,0.7
	s2.4,0.8,2.4,0.8s0.3,0.1,0.4-0.2c0.1-0.2,1.3-2.2,1.7-2.9l0.3,0.1L35.4,56l0.7,0.2l-2.3,7.1l-0.7-0.2L32.8,64l-0.3-0.1
	c0.1-0.8,0.4-3.1,0.4-3.3c0-0.3-0.2-0.4-0.2-0.4s-1.9-0.6-2.4-0.8s-0.7,0-0.9,0.2c-0.2,0.2-1.7,1.7-2.1,3s-0.1,3.4,0,3.7
	s0.1,0.5,0.6,0.7s2.4,0.8,2.4,0.8s0.3,0.1,0.4-0.2c0.1-0.2,1.3-2.2,1.7-2.9l0.3,0.1l-0.3,0.9l0.7,0.2l-1,3c0,0-0.6,1.7-0.6,3.2
	c0,5.2,5.7,3.9,5.7,12H56c0,0-0.7-13.9,13.4-16.3c0,0,2.1-0.1,2.2-5.2C71.6,50.7,62.4,36.5,62.4,32.4z M37.6,68.5
	c-1.3,0-2.3-1-2.3-2.3s1-2.3,2.3-2.3s2.3,1,2.3,2.3C40,67.4,38.9,68.5,37.6,68.5z M40.7,58.8c-1.3,0-2.3-1-2.3-2.3s1-2.3,2.3-2.3
	s2.3,1,2.3,2.3C43.1,57.8,42,58.8,40.7,58.8z M43.8,49.2c-1.3,0-2.3-1-2.3-2.3s1-2.3,2.3-2.3s2.3,1,2.3,2.3S45.1,49.2,43.8,49.2z
	 M46.9,39.6c-1.3,0-2.3-1-2.3-2.3s1-2.3,2.3-2.3s2.3,1,2.3,2.3C49.2,38.5,48.2,39.6,46.9,39.6z M50.2,29.9c-1.3,0-2.3-1-2.3-2.3
	s1-2.3,2.3-2.3s2.3,1,2.3,2.3S51.5,29.9,50.2,29.9z M53.3,20.2c-1.3,0-2.3-1-2.3-2.3s1-2.3,2.3-2.3s2.3,1,2.3,2.3
	S54.6,20.2,53.3,20.2z"/>
<rect x="37.1" y="86.5" class="st0" width="18.9" height="9"/>
</svg>
