<?xml version="1.0" encoding="utf-8"?>
<!-- Generator: Adobe Illustrator 22.1.0, SVG Export Plug-In . SVG Version: 6.00 Build 0)  -->
<svg version="1.1" id="Layer_1" xmlns="http://www.w3.org/2000/svg" xmlns:xlink="http://www.w3.org/1999/xlink" x="0px" y="0px"
	 viewBox="0 0 23 30" style="enable-background:new 0 0 23 30;" xml:space="preserve">
<style type="text/css">
	.st0{fill:#FCFCFC;}
</style>
<title>4 - Re Musical Note (Solid)</title>
<desc>Created with Sketch.</desc>
<g>
	<g>
		<path class="st0" d="M10,3.9l11-1.7v2L10,5.8V3.9z M22.7,0.2C22.4,0.1,22.1,0,21.8,0l-13,2C8.4,2.1,8,2.5,8,3v3v1v9.8
			C7.2,16.3,6.1,16,5,16c-2.8,0-5,1.8-5,4s2.2,4,5,4s5-1.8,5-4V7.9l11-1.7v6.7c-0.8-0.5-1.9-0.8-3-0.8c-2.8,0-5,1.8-5,4s2.2,4,5,4
			s5-1.8,5-4V5V1C23,0.7,22.9,0.4,22.7,0.2L22.7,0.2z"/>
	</g>
</g>
</svg>
